<svg fill="none" height="207" viewBox="0 0 200 207" width="200" xmlns="http://www.w3.org/2000/svg"><g fill="#fff"><path d="m133.992 28.9663c-7.918-10.5385-19.834-20.1518-35.4502-28.573194-.4823-.258078-1.0209-.393106-1.5679-.393106s-1.0855.135028-1.5679.393106c-28.614 14.161094-47.1307 38.578494-47.1307 62.164594v62.8863c.0081.887.3643 1.736.9917 2.364.6275.627 1.4762.984 2.3636.992h90.7184c.887-.008 1.736-.365 2.363-.992.628-.628.984-1.477.992-2.364v-62.8863c-.09-12.1833-4.208-23.9944-11.712-33.5914zm-36.2028 6.4297v-24.3076c8.4838 4.7444 16.2668 10.6451 23.1268 17.5328l-7.62 3.1365-.392-3.1365c-.027-.2024-.125-.3884-.278-.5238-.153-.1355-.349-.2112-.553-.2132-.206.0015-.405.0767-.56.2119s-.257.3214-.287.5251l-.549 4.297-12.9035 5.4418v-2.9797zm28.4258-.5959c6.101 7.7393 9.534 17.2463 9.784 27.099l-18.204 4.5322-3.449-26.362-.235-1.8348-.612-4.7047 8.687-3.6226c.689.7371 1.348 1.5682 1.991 2.2426l1.129 1.38c.282.4234.595.8469.909 1.2703zm1.176 61.4432v-14.5845c0-.2205-.088-.4319-.243-.5877-.156-.1559-.368-.2435-.588-.2435h-8.09v-9.2369l-.455-3.4657 17.999-4.4852v34.3756zm8.623 3.4972v19.3365h-8.623v-21.1086zm-17.544-7.0884v-10.1308h7.243v10.1308zm7.243 1.6937v24.7312h-7.243v-24.7312zm-11.79-44.6632.768 5.9279h-5.237l.753-5.9279zm-3.481-1.6937 1.568-12.5459 1.568 12.5459zm4.453 9.3153.784 5.9279h-7.228l.768-5.9279zm1.019 7.6059.768 5.9436h-9.219l.768-5.9436zm.878 7.6216v46.5453h-9.407v-46.5453zm-19.0185-32.3526 12.6685-5.3477-.078.5489-1.866 14.6159-2.509 19.399-5.189 1.286-2.9794-16.0901v-7.0727h2.9794v-1.6623h-3.0265v-3.2149h-1.6619v3.2149h-2.9947v1.6623h2.979v7.0727l-2.6968 16.1685-5.0486-1.2703-3.3866-26.1424-.2822-2.1484-.439-3.4188-.3607-2.7444 12.2296 5.1438zm0 67.5279-.4233-.204-.4076.235c-1.1593.65-2.1345 1.584-2.8338 2.714-.6994 1.13-1.1001 2.42-1.1644 3.748v4.877h-4.3273v-10.366l8.4822-8.469 8.5137 8.469v10.366h-3.81v-4.877c-.006-1.357-.392-2.685-1.116-3.833-.7235-1.148-1.7547-2.07-2.9762-2.66zm2.3675 6.493v4.877h-5.5816v-4.877c.0797-.945.3723-1.858.8556-2.673.4834-.815 1.145-1.51 1.9352-2.032.8274.476 1.515 1.161 1.9938 1.987.4789.826.732 1.763.734 2.718zm-11.5239-42.6093v-.2979l4.5312 1.1448-.7526 4.0617-3.7786 3.7794zm9.1251 26.8638c-.1586-.157-.3727-.2451-.5958-.2451-.2232 0-.4373.0881-.5958.2451l-7.9335 7.8415v-23.6335l8.4822-8.4685 8.5137 8.4685v23.6645zm-3.2455-24.0096 2.4929-14.8668 2.7438 14.8511-1.9912-1.9759c-.1586-.1571-.3727-.2452-.5958-.2452-.2232 0-.4373.0881-.5958.2452zm7.3063 2.0387-.768-4.1401 4.703-1.1448v.392.1098 8.5782zm-33.2236 16.1685v-10.1308h7.2437v10.1308zm7.2437 1.6937v24.7312h-7.2437v-24.7312zm-8.0746-13.5182c-.1105-.0021-.2202.0179-.3229.0587-.1026.0409-.1961.1018-.2749.1791-.0788.0774-.1414.1698-.1842.2716-.0427.1019-.0647.2113-.0647.3218v14.5061l-8.9213 1.8192v-34.3129l18.2816 4.5635-.439 3.356v9.2369zm-.8467 17.0624v21.187h-8.9213v-19.3679zm-8.9056-35.9595c.1725-9.2997 3.904-19.0384 10.8968-28.2282l1.0348-1.3487c.6272-.7841 1.2857-1.5682 1.9442-2.3209l8.8272 3.701-.6115 4.7047-.2351 1.8505-3.371 26.2521zm20.6334 1.3016.7683-5.9279h5.6757l.7683 5.9279zm7.4945 1.678.7683 5.9436h-9.2662l.7839-5.9436zm-6.4597-9.2996.784-5.9279h3.6375l.7526 5.9279zm.9878-7.6216 1.5679-12.5459 1.6463 12.5459zm-3.1358 24.5428h9.4073v46.5453h-9.4073zm18.5952-34.1561-12.5431-5.2379-.5645-4.4067c-.0299-.2037-.1317-.39-.287-.5252-.1553-.1351-.3538-.2103-.5596-.2118-.2041.002-.4006.0777-.5532.2132-.1527.1354-.2514.3214-.2778.5238l-.4234 3.2776-7.8394-3.2933c6.6498-7.1434 14.4316-13.1413 23.0323-17.7523v24.433zm-44.481 24.1821c0-21.7984 17.09-44.8827 44.4653-58.76154v5.23789c-11.0929 5.76525-20.827 13.83335-28.5513 23.66455-7.3534 9.629-11.2104 20.0107-11.2104 29.8591v57.0213l-4.7036 4.704zm1.2229 62.8863 4.7037-4.705h79.0218l4.703 4.705zm89.4955-1.192-4.704-4.705v-56.9893c-.109-10.4474-3.67-20.5652-10.129-28.777-6.694-8.9075-16.713-17.2505-29.7895-24.63687v-5.3163c30.5115 16.67027 44.6225 36.93177 44.6225 58.73017z"/><path d="m97.0994 84.3565c-.9689-.0031-1.9168.2816-2.7237.818-.8068.5365-1.4362 1.3005-1.8084 2.1952s-.4704 1.8798-.2822 2.8303c.1883.9506.6545 1.8239 1.3396 2.5091s1.5581 1.1516 2.5085 1.3398c.9504.1883 1.9353.0901 2.8298-.2821.8945-.3723 1.658-1.0019 2.195-1.8089.536-.807.821-1.7552.818-2.7242-.005-1.2923-.52-2.5304-1.433-3.4442-.9138-.9137-2.1517-1.4289-3.4436-1.433zm0 8.1548c-.6202 0-1.2265-.184-1.7422-.5286-.5157-.3447-.9176-.8345-1.1549-1.4076-.2374-.5731-.2995-1.2038-.1785-1.8122s.4197-1.1673.8582-1.6059c.4386-.4386.9973-.7374 1.6056-.8584s1.2388-.0589 1.8118.1785 1.0627.6394 1.4073 1.1552c.3443.5158.5283 1.1222.5283 1.7425 0 .8318-.3302 1.6296-.9183 2.2178s-1.3857.9187-2.2173.9187z"/><path d="m82.5807 85.2818-.3607-.1568-.3449.1568c-.8719.5069-1.5794 1.254-2.0382 2.1522-.4587.8983-.6493 1.9096-.5488 2.9132v13.5178h5.8796v-13.5178c.1004-1.0036-.0901-2.0149-.5489-2.9132-.4587-.8982-1.1663-1.6453-2.0381-2.1522zm.8936 16.8902h-2.4929v-11.8248c-.0595-.6095.0211-1.2246.2358-1.7981s.5577-1.0903 1.0028-1.5109c.448.4191.7939.9352 1.0114 1.5088.2174.5736.3005 1.1895.2429 1.8002z"/><path d="m115.005 90.3472c.1-1.0036-.09-2.0149-.549-2.9132-.459-.8982-1.166-1.6453-2.038-2.1522l-.345-.1568-.361.1568c-.87.5075-1.576 1.2553-2.032 2.1538-.456.8984-.643 1.9094-.539 2.9116v13.5178h5.864zm-1.694 11.8248h-2.493v-11.8248c-.061-.611.021-1.2279.238-1.8021.218-.5742.566-1.09 1.017-1.5069.445.4206.788.9374 1.003 1.5109.214.5735.295 1.1886.235 1.7981z"/><path d="m44.3712 203.856c.1681.383.4447.709.7957.938.351.228.7611.349 1.1798.348 1.223 0 1.8345-.69 1.8345-2.447v-7.998h1.4738v8.139c0 1.976-.9251 3.592-3.1358 3.592-.6426.021-1.2782-.139-1.8332-.464s-1.0066-.8-1.3026-1.371z"/><path d="m65.0517 202.632h-4.202l-1.0975 3.513h-1.5679l3.8884-11.527h1.662l3.8883 11.527h-1.5679zm-.3606-1.176-.5174-1.757c-.4234-1.286-.7997-2.54-1.1603-3.873h-.0784c-.3449 1.333-.7212 2.587-1.1445 3.873l-.5331 1.757z"/><path d="m76.3562 194.618h1.4425v5.787l4.782-5.787h1.662l-3.6062 4.391 4.1549 7.136h-1.5678l-3.371-5.991-1.9912 2.337v3.654h-1.4425z"/><path d="m98.6672 202.632h-4.249l-1.0975 3.513h-1.5679l3.9041-11.527h1.6462l3.8889 11.527h-1.5684zm-.3763-1.176-.5488-1.757c-.4076-1.286-.7839-2.54-1.1445-3.873-.3449 1.333-.7212 2.587-1.1289 3.873l-.5488 1.757z"/><path d="m116.228 206.145-2.775-4.878h-2.086v4.878h-1.458v-11.527h3.606c2.352 0 4.03.847 4.03 3.231.043.764-.195 1.517-.669 2.117-.473.601-1.15 1.008-1.903 1.145l2.917 5.034zm-4.861-6.054h1.929c1.803 0 2.791-.752 2.791-2.242s-.988-2.055-2.791-2.055h-1.929z"/><path d="m129.163 195.857h-3.481v-1.239h8.435v1.239h-3.48v10.288h-1.474z"/><path d="m147.758 202.632h-4.186l-1.114 3.513h-1.458l3.904-11.527h1.568l3.936 11.527h-1.568zm-.361-1.176-.549-1.757c-.423-1.286-.783-2.54-1.16-3.873-.36 1.333-.721 2.587-1.144 3.873l-.549 1.757z"/><path d="m17.968 172.836-7.4318-7.998 4.2333-4.438c3.1358-3.309 5.3152-5.254 7.9335-5.254h.1882v-.533c-1.3327 0-2.6654 0-3.9668 0-1.3013 0-3.8099 0-5.1113 0v.533c.6585 0 1.5679 0 1.5679.832 0 .831-1.7404 2.619-3.9668 4.971l-5.04857 5.003v-6.493c0-2.932.31358-4.046 3.04171-4.375v-.471h-4.70367-4.70367v.471c2.64973.329 2.94763 1.568 2.94763 4.375v13.032c0 2.87-.2979 4.078-2.94763 4.438v.424h4.70367 4.78206v-.424c-2.72813-.329-3.0417-1.568-3.0417-4.438v-3.419l2.11665-2.305c3.60612 3.419 9.18782 9.927 9.83062 10.539h2.101 3.1358l.1097-.408c-2.3518-.486-3.3239-1.396-5.7698-4.062z"/><path d="m45.8607 172.632c-2.5243-6.273-4.4058-11.229-7.4162-18.678h-1.0034c-4.0295 9.409-8.2941 20.152-9.031 21.312-.2682.465-.6512.854-1.1124 1.128-.4612.275-.9852.426-1.5217.441v.47h4.8761 3.9511v-.533c-2.2891 0-2.8849-.847-2.8849-1.757.1887-1.355.5578-2.679 1.0975-3.936h8.937c.5815 1.333 1.0127 2.727 1.2857 4.156 0 .831-.2195 1.474-2.2421 1.568v.533h3.7159 5.3151v-.533c-2.2421-.157-2.9006-1.537-3.9667-4.171zm-12.3864-3.294c.9408-2.477 2.2108-5.739 3.763-9.942 1.7247 4.391 2.9633 7.59 3.857 9.942z"/><path d="m173.064 172.632c-2.525-6.273-4.406-11.229-7.417-18.678h-1.003c-4.029 9.409-8.294 20.152-9.047 21.312-.267.463-.647.85-1.105 1.125-.459.274-.979.427-1.513.444v.47h4.876 3.951v-.533c-2.305 0-2.885-.847-2.885-1.757.19-1.372.564-2.711 1.113-3.983h8.922c.581 1.333 1.012 2.727 1.285 4.156 0 .831-.203 1.474-2.242 1.568v.533h3.716 5.315v-.533c-2.257-.11-2.9-1.49-3.966-4.124zm-12.387-3.294c.941-2.477 2.211-5.739 3.747-9.942 1.741 4.391 2.995 7.59 3.873 9.942z"/><path d="m88.3506 175.439c-4.5156 0-5.911-.235-5.911-3.512v-5.583h4.4058c2.8692 0 4.2176 0 4.4371 1.772h.4077c0-1.459 0-2.196 0-2.776s0-1.443 0-2.948h-.4077c-.1881 1.819-1.5679 1.85-4.4371 1.85h-4.4058v-4.485c0-3.136 1.8972-3.34 5.911-3.34 3.7315 0 4.343 1.474 5.1113 3.34h.3292c0-.737-.094-1.835-.094-2.603.0231-.941.1121-1.879.2665-2.807-3.2733.295-6.5612.394-9.8463.298-2.1794 0-5.7856 0-8.012 0v.47c2.6655.329 2.9634 1.568 2.9634 4.375v13.111c0 2.87-.2979 4.077-2.9634 4.438v.408h8.5137c3.1392-.099 6.2816.006 9.4073.313.288-1.717.8158-3.385 1.5679-4.955l-.3136-.188c-1.4581 1.756-2.3988 2.822-6.93 2.822z"/><path d="m111.555 154.44c-1.818 0-3.245.204-5.942.204h-4.704v.471c2.666.329 2.948 1.568 2.948 4.375v13.001c0 2.87-.282 4.077-2.948 4.438v.423h4.704 6.178c8.78 0 12.794-5.912 12.794-11.856-.079-7.605-4.485-11.056-13.03-11.056zm-.141 20.999c-3.951 0-4.139-.298-4.139-3.607v-11.573c0-3.764-.455-3.874 3.528-3.874 7.385 0 10.066 3.717 10.066 10.021 0 4.517-2.101 9.033-9.455 9.033z"/><path d="m199.765 172.49c-1.364 1.851-2.979 2.949-7.495 2.949-3.935 0-5.315-.236-5.315-3.513v-12.546c0-2.933.329-4.046 3.042-4.375v-.471h-4.704-4.703v.471c2.649.329 2.963 1.568 2.963 4.375v13.11c0 2.87-.314 4.078-2.963 4.439v.423c2.414 0 5.487-.094 7.839-.094 3.338-.093 6.678.012 10.003.313.303-1.693.831-3.338 1.568-4.892z"/><path d="m145.234 172.836-4.579-5.348c.889-.047 1.76-.272 2.56-.663.801-.39 1.514-.937 2.099-1.608.585-.672 1.029-1.454 1.307-2.3.277-.846.381-1.74.306-2.627-.251-3.842-3.136-5.881-8.921-5.881-1.568 0-3.826.235-5.19.235h-4.704v.471c2.65.329 2.948 1.568 2.948 4.375v12.797c0 2.854-.298 4.36-2.948 4.705v.423h4.704 4.798v-.423c-2.728-.33-3.136-1.804-3.136-4.705v-12.342c0-3.136.455-3.685 3.136-3.685 4.703 0 5.77 2.979 5.77 4.563 0 3.513-2.634 5.081-6.115 5.081h-.972v.314c3.135 3.042 8.513 10.491 9.235 11.197h2.101 3.135l.126-.408c-2.227-.596-3.214-1.505-5.66-4.171z"/><path d="m62.3706 154.707h-5.08c-2.4668.046-4.934-.075-7.3847-.361.1243 1.041.1819 2.088.1724 3.136 0 .769.0001 1.569-.094 2.306h.3292c.7683-1.866 1.5679-3.341 5.2838-3.341 1.8658 0 2.5086 0 2.5086 3.341v12.702c0 2.87-.2979 4.078-2.9476 4.439v.423h4.7037 4.7037v-.423c-2.6655-.361-2.9634-1.569-2.9634-4.439v-12.781c0-3.262.6586-3.34 2.5087-3.34 3.7315 0 4.5155 1.474 5.2994 3.34h.3136c0-.737 0-1.568 0-2.305-.0013-1.048.0562-2.095.1725-3.136-2.4956.318-5.0102.465-7.5259.439z"/></g></svg>